# xmcd
#
# Track frame offsets:
#  150
#  12882
#  26926
#  46878
#  62387
#  76898
#  93131
#  110409
#  126914
#  142721
#  160738
#  175438
#  191233
#  205646
#  226211
#  242675
#  262316
#  281246
#  297234
#  309262
#  325347
#  327862
#
# Disc length: 4432 seconds
#
# Revision: 0
# Processed by: cddbd v1.5.1PL2 Copyright (c) Steve Scherf et al.
# Submitted via: Collectorz.com_Music_Collector 6.9
#
DISCID=33114e16
DTITLE=Various Artist - Nfs 104 April 2006
DYEAR=2006
DGENRE=
TTITLE0=Tumble Weed
TTITLE1=My Life
TTITLE2=The Battle Of Long Tan
TTITLE3=Cruising
TTITLE4=How Did Your Love Slip Through My Hands
TTITLE5=High As Heaven
TTITLE6=My Old Tin Shack
TTITLE7=I Fell In Love
TTITLE8=Comeback Of The Year
TTITLE9=The Lonely Road
TTITLE10=Riding That White Line
TTITLE11=Tonight
TTITLE12=With Every Breath
TTITLE13=Boundary Riders Daughter
TTITLE14=Why Does She Love Me
TTITLE15=Charades
TTITLE16=What Are They Marching For?
TTITLE17=A Tribute To Slim
TTITLE18=Bashed Up, Beaten, Broken Heart
TTITLE19=My History
TTITLE20=Data track
TTITLE21=Data track
EXTD=
EXTT0=
EXTT1=
EXTT2=
EXTT3=
EXTT4=
EXTT5=
EXTT6=
EXTT7=
EXTT8=
EXTT9=
EXTT10=
EXTT11=
EXTT12=
EXTT13=
EXTT14=
EXTT15=
EXTT16=
EXTT17=
EXTT18=
EXTT19=
EXTT20=
EXTT21=
PLAYORDER=
